<?xml version="1.0" encoding="UTF-8"?>
<svg xmlns="http://www.w3.org/2000/svg" xmlns:xlink="http://www.w3.org/1999/xlink" width="20pt" height="20pt" viewBox="0 0 20 20" version="1.1">
<g id="surface1">
<path style=" stroke:none;fill-rule:nonzero;fill:#9AA0A6;fill-opacity:1;" d="M 8.332031 1.191406 C 4.605469 1.191406 1.585938 4.207031 1.585938 7.9375 C 1.585938 11.667969 4.605469 14.683594 8.332031 14.683594 C 9.664063 14.683594 10.898438 14.292969 11.941406 13.628906 L 16.816406 18.503906 L 18.503906 16.816406 L 13.691406 12.015625 C 14.554688 10.882813 15.078125 9.476563 15.078125 7.9375 C 15.078125 4.207031 12.0625 1.191406 8.332031 1.191406 Z M 8.332031 2.777344 C 11.191406 2.777344 13.492188 5.078125 13.492188 7.9375 C 13.492188 10.792969 11.191406 13.09375 8.332031 13.09375 C 5.476563 13.09375 3.175781 10.792969 3.175781 7.9375 C 3.175781 5.078125 5.476563 2.777344 8.332031 2.777344 Z "/>
</g>
</svg>
